<svg width="22" height="22" viewBox="0 0 22 22" fill="none" xmlns="http://www.w3.org/2000/svg">
<path d="M9.87526 11C9.87526 11.2984 9.99378 11.5845 10.2048 11.7955C10.4157 12.0065 10.7019 12.125 11.0003 12.125C11.2986 12.125 11.5848 12.0065 11.7957 11.7955C12.0067 11.5845 12.1253 11.2984 12.1253 11C12.1253 10.7016 12.0067 10.4155 11.7957 10.2045C11.5848 9.99353 11.2986 9.875 11.0003 9.875C10.7019 9.875 10.4157 9.99353 10.2048 10.2045C9.99378 10.4155 9.87526 10.7016 9.87526 11ZM14.5628 11C14.5628 11.2984 14.6813 11.5845 14.8923 11.7955C15.1032 12.0065 15.3894 12.125 15.6878 12.125C15.9861 12.125 16.2723 12.0065 16.4832 11.7955C16.6942 11.5845 16.8128 11.2984 16.8128 11C16.8128 10.7016 16.6942 10.4155 16.4832 10.2045C16.2723 9.99353 15.9861 9.875 15.6878 9.875C15.3894 9.875 15.1032 9.99353 14.8923 10.2045C14.6813 10.4155 14.5628 10.7016 14.5628 11ZM5.18776 11C5.18776 11.2984 5.30628 11.5845 5.51726 11.7955C5.72824 12.0065 6.01439 12.125 6.31276 12.125C6.61112 12.125 6.89727 12.0065 7.10825 11.7955C7.31923 11.5845 7.43776 11.2984 7.43776 11C7.43776 10.7016 7.31923 10.4155 7.10825 10.2045C6.89727 9.99353 6.61112 9.875 6.31276 9.875C6.01439 9.875 5.72824 9.99353 5.51726 10.2045C5.30628 10.4155 5.18776 10.7016 5.18776 11ZM20.6846 6.93125C20.1549 5.67266 19.3956 4.54297 18.4276 3.57266C17.4664 2.60796 16.3253 1.84114 15.069 1.31563C13.7799 0.774219 12.4112 0.5 11.0003 0.5H10.9534C9.53307 0.507031 8.15729 0.788281 6.86354 1.34141C5.61797 1.87232 4.48759 2.64049 3.53541 3.60312C2.57682 4.57109 1.82447 5.69609 1.30416 6.95C0.765099 8.24844 0.493224 9.62891 0.500255 11.0492C0.508208 12.6769 0.893283 14.2806 1.62525 15.7344V19.2969C1.62525 19.5828 1.73884 19.857 1.94103 20.0592C2.14322 20.2614 2.41744 20.375 2.70338 20.375H6.26822C7.72204 21.107 9.32571 21.492 10.9534 21.5H11.0026C12.4065 21.5 13.7682 21.2281 15.0503 20.6961C16.3002 20.1768 17.4371 19.419 18.3971 18.4648C19.3651 17.5063 20.1268 16.3859 20.6588 15.1367C21.212 13.843 21.4932 12.4672 21.5003 11.0469C21.5073 9.61953 21.2307 8.23438 20.6846 6.93125ZM17.1432 17.1969C15.5003 18.8234 13.3206 19.7188 11.0003 19.7188H10.9604C9.54713 19.7117 8.14322 19.3602 6.90338 18.6992L6.7065 18.5938H3.40651V15.2938L3.30104 15.0969C2.6401 13.857 2.28854 12.4531 2.28151 11.0398C2.27213 8.70312 3.1651 6.50937 4.80338 4.85703C6.43932 3.20469 8.62604 2.29062 10.9628 2.28125H11.0026C12.1745 2.28125 13.3112 2.50859 14.3823 2.95859C15.4276 3.39687 16.3651 4.02734 17.1713 4.83359C17.9753 5.6375 18.6081 6.57734 19.0463 7.62266C19.501 8.70547 19.7284 9.85391 19.7237 11.0398C19.7096 13.3742 18.7932 15.5609 17.1432 17.1969Z" fill="#002766"/>
</svg>
